<svg xmlns="http://www.w3.org/2000/svg" viewBox="0 0 400 114" fill="none" aria-hidden="true">
  <g stroke="#1f3d2b" stroke-linecap="round" stroke-linejoin="round">
    <path d="M10 101 H390" stroke-width="1" opacity="0.28"/>
    <g stroke-width="1.15" opacity="0.92">
      <path d="M36 100V60M36 60L14 78L36 44L58 78L36 60M36 50L20 66L36 34L52 66L36 50"/>
      <path d="M98 100V64M98 64L78 80L98 48L118 80L98 64M98 54L84 68L98 40L112 68L98 54"/>
      <path d="M162 100V53M162 53L136 77L162 33L188 77L162 53M162 43L142 63L162 29L182 63L162 43"/>
      <path d="M228 100V58M228 58L206 78L228 42L250 78L228 58M228 49L214 65L228 35L242 65L228 49"/>
      <path d="M298 100V55M298 55L276 76L298 37L320 76L298 55M298 46L282 62L298 32L314 62L298 46"/>
    </g>
  </g>
</svg>
